<svg viewBox="0 0 650 650" xmlns="http://www.w3.org/2000/svg" xml:space="preserve" style="fill-rule:evenodd;clip-rule:evenodd;stroke-linejoin:round;stroke-miterlimit:2"><style>:root{--foreground-color:#6366f1}@media (prefers-color-scheme:dark){:root{--foreground-color:#fff}}</style><path d="M.104-.083v-.514H.02v-.082h.177v.596h.072V0H.02v-.083h.084Z" style="fill:var(--foreground-color);fill-rule:nonzero" transform="translate(25.619 570.46) scale(738.23)"/><path d="M.483-.473v.179H.4a.115.115 0 0 0-.041-.079A.133.133 0 0 0 .276-.4a.13.13 0 0 0-.101.044.17.17 0 0 0-.039.116c0 .045.012.084.037.118.025.034.06.051.107.051a.148.148 0 0 0 .142-.093l.077.037a.226.226 0 0 1-.223.141A.218.218 0 0 1 .1-.063.267.267 0 0 1 .035-.24a.24.24 0 0 1 .07-.176.223.223 0 0 1 .163-.07c.052 0 .096.016.132.047v-.034h.083Z" style="fill:var(--foreground-color);fill-rule:nonzero" transform="translate(241.176 570.46) scale(738.23)"/></svg>