<?xml version="1.0" encoding="UTF-8"?>
<svg xmlns="http://www.w3.org/2000/svg" xmlns:xlink="http://www.w3.org/1999/xlink" width="0" height="0">
<!-- Tabler Icons: https://tabler.io/icons -->
<symbol id="cloud-download" width="24" height="24" viewBox="0 0 24 24" fill="none" stroke="currentColor" stroke-width="2" stroke-linecap="round" stroke-linejoin="round" class="icon icon-tabler icons-tabler-outline icon-tabler-cloud-download"><path stroke="none" d="M0 0h24v24H0z" fill="none"/><path d="M19 18a3.5 3.5 0 0 0 0 -7h-1a5 4.5 0 0 0 -11 -2a4.6 4.4 0 0 0 -2.1 8.4" /><path d="M12 13l0 9" /><path d="M9 19l3 3l3 -3" /></symbol>
<symbol id="rss" width="24" height="24" viewBox="0 0 24 24" fill="none" stroke="currentColor" stroke-width="2" stroke-linecap="round" stroke-linejoin="round" class="icon icon-tabler icons-tabler-outline icon-tabler-rss"><path stroke="none" d="M0 0h24v24H0z" fill="none"/><path d="M5 19m-1 0a1 1 0 1 0 2 0a1 1 0 1 0 -2 0" /><path d="M4 4a16 16 0 0 1 16 16" /><path d="M4 11a9 9 0 0 1 9 9" /></symbol>
<symbol id="search" width="24" height="24" viewBox="0 0 24 24" fill="none" stroke="currentColor" stroke-width="2" stroke-linecap="round" stroke-linejoin="round" class="icon icon-tabler icons-tabler-outline icon-tabler-search"><path stroke="none" d="M0 0h24v24H0z" fill="none"/><path d="M10 10m-7 0a7 7 0 1 0 14 0a7 7 0 1 0 -14 0" /><path d="M21 21l-6 -6" /></symbol>
<symbol id="share" width="24" height="24" viewBox="0 0 24 24" fill="none" stroke="currentColor" stroke-width="2" stroke-linecap="round" stroke-linejoin="round" class="icon icon-tabler icons-tabler-outline icon-tabler-share"><path stroke="none" d="M0 0h24v24H0z" fill="none"/><path d="M6 12m-3 0a3 3 0 1 0 6 0a3 3 0 1 0 -6 0" /><path d="M18 6m-3 0a3 3 0 1 0 6 0a3 3 0 1 0 -6 0" /><path d="M18 18m-3 0a3 3 0 1 0 6 0a3 3 0 1 0 -6 0" /><path d="M8.7 10.7l6.6 -3.4" /><path d="M8.7 13.3l6.6 3.4" /></symbol>
<symbol id="thumb-down" width="24" height="24" viewBox="0 0 24 24" fill="none" stroke="currentColor" stroke-width="2" stroke-linecap="round" stroke-linejoin="round" class="icon icon-tabler icons-tabler-outline icon-tabler-thumb-down"><path stroke="none" d="M0 0h24v24H0z" fill="none"/><path d="M7 13v-8a1 1 0 0 0 -1 -1h-2a1 1 0 0 0 -1 1v7a1 1 0 0 0 1 1h3a4 4 0 0 1 4 4v1a2 2 0 0 0 4 0v-5h3a2 2 0 0 0 2 -2l-1 -5a2 3 0 0 0 -2 -2h-7a3 3 0 0 0 -3 3" /></symbol>
<symbol id="thumb-up" width="24" height="24" viewBox="0 0 24 24" fill="none" stroke="currentColor" stroke-width="2" stroke-linecap="round" stroke-linejoin="round" class="icon icon-tabler icons-tabler-outline icon-tabler-thumb-up"><path stroke="none" d="M0 0h24v24H0z" fill="none"/><path d="M7 11v8a1 1 0 0 1 -1 1h-2a1 1 0 0 1 -1 -1v-7a1 1 0 0 1 1 -1h3a4 4 0 0 0 4 -4v-1a2 2 0 0 1 4 0v5h3a2 2 0 0 1 2 2l-1 5a2 3 0 0 1 -2 2h-7a3 3 0 0 1 -3 -3" /></symbol>
</svg>
