<?xml version="1.0" encoding="UTF-8"?>
<svg xmlns="http://www.w3.org/2000/svg" xmlns:xlink="http://www.w3.org/1999/xlink" width="0" height="0">
<!-- Tabler Icons: https://tabler.io/icons -->
<symbol id="arrow-left" width="24" height="24" viewBox="0 0 24 24" fill="none" stroke="currentColor" stroke-width="2" stroke-linecap="round" stroke-linejoin="round" class="icon icon-tabler icons-tabler-outline icon-tabler-arrow-left"><path stroke="none" d="M0 0h24v24H0z" fill="none"/><path d="M5 12l14 0" /><path d="M5 12l6 6" /><path d="M5 12l6 -6" /></symbol>
<symbol id="caret-down-filled" width="24" height="24" viewBox="0 0 24 24" fill="currentColor" class="icon icon-tabler icons-tabler-filled icon-tabler-caret-down"><path stroke="none" d="M0 0h24v24H0z" fill="none"/><path d="M18 9c.852 0 1.297 .986 .783 1.623l-.076 .084l-6 6a1 1 0 0 1 -1.32 .083l-.094 -.083l-6 -6l-.083 -.094l-.054 -.077l-.054 -.096l-.017 -.036l-.027 -.067l-.032 -.108l-.01 -.053l-.01 -.06l-.004 -.057v-.118l.005 -.058l.009 -.06l.01 -.052l.032 -.108l.027 -.067l.07 -.132l.065 -.09l.073 -.081l.094 -.083l.077 -.054l.096 -.054l.036 -.017l.067 -.027l.108 -.032l.053 -.01l.06 -.01l.057 -.004l12.059 -.002z" /></symbol>
<symbol id="cloud-download" width="24" height="24" viewBox="0 0 24 24" fill="none" stroke="currentColor" stroke-width="2" stroke-linecap="round" stroke-linejoin="round" class="icon icon-tabler icons-tabler-outline icon-tabler-cloud-download"><path stroke="none" d="M0 0h24v24H0z" fill="none"/><path d="M19 18a3.5 3.5 0 0 0 0 -7h-1a5 4.5 0 0 0 -11 -2a4.6 4.4 0 0 0 -2.1 8.4" /><path d="M12 13l0 9" /><path d="M9 19l3 3l3 -3" /></symbol>
<symbol id="rss" width="24" height="24" viewBox="0 0 24 24" fill="none" stroke="currentColor" stroke-width="2" stroke-linecap="round" stroke-linejoin="round" class="icon icon-tabler icons-tabler-outline icon-tabler-rss"><path stroke="none" d="M0 0h24v24H0z" fill="none"/><path d="M5 19m-1 0a1 1 0 1 0 2 0a1 1 0 1 0 -2 0" /><path d="M4 4a16 16 0 0 1 16 16" /><path d="M4 11a9 9 0 0 1 9 9" /></symbol>
<symbol id="search" width="24" height="24" viewBox="0 0 24 24" fill="none" stroke="currentColor" stroke-width="2" stroke-linecap="round" stroke-linejoin="round" class="icon icon-tabler icons-tabler-outline icon-tabler-search"><path stroke="none" d="M0 0h24v24H0z" fill="none"/><path d="M10 10m-7 0a7 7 0 1 0 14 0a7 7 0 1 0 -14 0" /><path d="M21 21l-6 -6" /></symbol>
<symbol id="share" width="24" height="24" viewBox="0 0 24 24" fill="none" stroke="currentColor" stroke-width="2" stroke-linecap="round" stroke-linejoin="round" class="icon icon-tabler icons-tabler-outline icon-tabler-share"><path stroke="none" d="M0 0h24v24H0z" fill="none"/><path d="M6 12m-3 0a3 3 0 1 0 6 0a3 3 0 1 0 -6 0" /><path d="M18 6m-3 0a3 3 0 1 0 6 0a3 3 0 1 0 -6 0" /><path d="M18 18m-3 0a3 3 0 1 0 6 0a3 3 0 1 0 -6 0" /><path d="M8.7 10.7l6.6 -3.4" /><path d="M8.7 13.3l6.6 3.4" /></symbol>
<symbol id="thumb-down" width="24" height="24" viewBox="0 0 24 24" fill="none" stroke="currentColor" stroke-width="2" stroke-linecap="round" stroke-linejoin="round" class="icon icon-tabler icons-tabler-outline icon-tabler-thumb-down"><path stroke="none" d="M0 0h24v24H0z" fill="none"/><path d="M7 13v-8a1 1 0 0 0 -1 -1h-2a1 1 0 0 0 -1 1v7a1 1 0 0 0 1 1h3a4 4 0 0 1 4 4v1a2 2 0 0 0 4 0v-5h3a2 2 0 0 0 2 -2l-1 -5a2 3 0 0 0 -2 -2h-7a3 3 0 0 0 -3 3" /></symbol>
<symbol id="thumb-up" width="24" height="24" viewBox="0 0 24 24" fill="none" stroke="currentColor" stroke-width="2" stroke-linecap="round" stroke-linejoin="round" class="icon icon-tabler icons-tabler-outline icon-tabler-thumb-up"><path stroke="none" d="M0 0h24v24H0z" fill="none"/><path d="M7 11v8a1 1 0 0 1 -1 1h-2a1 1 0 0 1 -1 -1v-7a1 1 0 0 1 1 -1h3a4 4 0 0 0 4 -4v-1a2 2 0 0 1 4 0v5h3a2 2 0 0 1 2 2l-1 5a2 3 0 0 1 -2 2h-7a3 3 0 0 1 -3 -3" /></symbol>
<symbol id="x" width="24" height="24" viewBox="0 0 24 24" fill="none" stroke="currentColor" stroke-width="2" stroke-linecap="round" stroke-linejoin="round" class="icon icon-tabler icons-tabler-outline icon-tabler-x"><path stroke="none" d="M0 0h24v24H0z" fill="none"/><path d="M18 6l-12 12" /><path d="M6 6l12 12" /></symbol>
<!-- Untitled UI -->
<symbol id="notification-success" width="38" height="38" viewBox="0 0 38 38" fill="none"><g opacity="0.3"><rect x="6" y="6" width="26" height="26" rx="13" stroke="#079455" stroke-width="2"/></g><g opacity="0.1"><rect x="1" y="1" width="36" height="36" rx="18" stroke="#079455" stroke-width="2"/></g><g clip-path="url(#clip0_4944_371104)"><path d="M15.25 19L17.75 21.5L22.75 16.5M27.3333 19C27.3333 23.6023 23.6023 27.3333 19 27.3333C14.3976 27.3333 10.6666 23.6023 10.6666 19C10.6666 14.3976 14.3976 10.6666 19 10.6666C23.6023 10.6666 27.3333 14.3976 27.3333 19Z" stroke="#079455" stroke-width="1.66667" stroke-linecap="round" stroke-linejoin="round"/></g><defs><clipPath id="clip0_4944_371104"><rect width="20" height="20" fill="white" transform="translate(9 9)"/></clipPath></defs></symbol>
<symbol id="notification-warning" width="38" height="38" viewBox="0 0 38 38" fill="none"><g opacity="0.3"><rect x="6" y="6" width="26" height="26" rx="13" stroke="#DC6803" stroke-width="2"/></g><g opacity="0.1"><rect x="1" y="1" width="36" height="36" rx="18" stroke="#DC6803" stroke-width="2"/></g><g clip-path="url(#clip0_4944_371123)"><path d="M19 15.6666V19M19 22.3333H19.0083M27.3333 19C27.3333 23.6023 23.6023 27.3333 19 27.3333C14.3976 27.3333 10.6666 23.6023 10.6666 19C10.6666 14.3976 14.3976 10.6666 19 10.6666C23.6023 10.6666 27.3333 14.3976 27.3333 19Z" stroke="#DC6803" stroke-width="1.66667" stroke-linecap="round" stroke-linejoin="round"/></g><defs><clipPath id="clip0_4944_371123"><rect width="20" height="20" fill="white" transform="translate(9 9)"/></clipPath></defs></symbol>
<symbol id="notification-error" width="38" height="38" viewBox="0 0 38 38" fill="none"><g opacity="0.3"><rect x="6" y="6" width="26" height="26" rx="13" stroke="#D92D20" stroke-width="2"/></g><g opacity="0.1"><rect x="1" y="1" width="36" height="36" rx="18" stroke="#D92D20" stroke-width="2"/></g><g clip-path="url(#clip0_4944_371113)"><path d="M19 15.6667V19M19 22.3334H19.0083M27.3333 19C27.3333 23.6024 23.6023 27.3334 19 27.3334C14.3976 27.3334 10.6666 23.6024 10.6666 19C10.6666 14.3976 14.3976 10.6667 19 10.6667C23.6023 10.6667 27.3333 14.3976 27.3333 19Z" stroke="#D92D20" stroke-width="1.66667" stroke-linecap="round" stroke-linejoin="round"/></g><defs><clipPath id="clip0_4944_371113"><rect width="20" height="20" fill="white" transform="translate(9 9)"/></clipPath></defs></symbol>
</svg>
