<svg xmlns="http://www.w3.org/2000/svg" viewBox="0 0 650 650"><path fill="#6366f1" d="M102.397 509.541V129.973H40.398V69.054h130.487v440.487h53.349v60.918H40.398v-60.918h61.999ZM598.034 221.53v131.93h-61.278c-3.124-25.232-13.398-44.577-30.82-58.035-17.422-13.457-37.668-20.186-60.738-20.186-30.76 0-55.752 10.874-74.976 32.622-19.225 21.748-28.838 50.285-28.838 85.61 0 32.923 9.132 61.94 27.396 87.052 18.263 25.113 44.697 37.669 79.302 37.669 48.061 0 82.906-22.83 104.534-68.488l56.593 26.674c-31.241 69.449-85.911 104.174-164.011 104.174-55.271 0-98.767-18.864-130.488-56.593-31.721-37.728-47.581-81.224-47.581-130.488 0-52.627 17.302-96.063 51.907-130.307 34.604-34.244 74.495-51.366 119.674-51.366 38.689 0 71.371 11.415 98.046 34.244V221.53h61.278Z"/></svg>
